<svg xmlns="http://www.w3.org/2000/svg" viewBox="0 0 368.28 92.95"><defs><style>.cls-1{fill:#fff;}</style></defs><g id="Layer_2" data-name="Layer 2"><g id="Layer_1-2" data-name="Layer 1"><path class="cls-1" d="M107,66.62l18.14,5.2a33.59,33.59,0,0,1-7.49,11.08,32.82,32.82,0,0,1-24.09,10,32.78,32.78,0,0,1-24.08-10,32.78,32.78,0,0,1-10-24.08,32.82,32.82,0,0,1,10-24.09,32.81,32.81,0,0,1,24.08-10,32.85,32.85,0,0,1,24.09,10,33.63,33.63,0,0,1,7.49,11.09L107,51a15.88,15.88,0,0,0-2.48-3.16,15.48,15.48,0,0,0-26.44,11,15.5,15.5,0,0,0,26.44,11A16.17,16.17,0,0,0,107,66.62Z"/><path class="cls-1" d="M145.57,54.48V93H127.69V55.24a30.72,30.72,0,0,1,8.4-21.5,28.76,28.76,0,0,1,21.4-9.06h17.88l-6,17.88H157.82a12.26,12.26,0,0,0-8.35,3.09A11.55,11.55,0,0,0,145.57,54.48Z"/><path class="cls-1" d="M203.73,92.87a32.82,32.82,0,0,1-24.09-10,32.82,32.82,0,0,1-10-24.08,32.86,32.86,0,0,1,10-24.09,34.1,34.1,0,0,1,48.17,0,32.82,32.82,0,0,1,10,24.09,32.78,32.78,0,0,1-10,24.08A32.8,32.8,0,0,1,203.73,92.87Zm0-18.57A15.43,15.43,0,0,0,219.2,58.82a15.48,15.48,0,1,0-26.43,11A14.92,14.92,0,0,0,203.73,74.3Z"/><path class="cls-1" d="M261,93H243.1V6.79H261Z"/><path class="cls-1" d="M285.37,93H267.49V6.79h17.88Z"/><path class="cls-1" d="M300.8,18.57a8.94,8.94,0,0,1-6.56-2.72,9,9,0,0,1-2.72-6.56,9,9,0,0,1,2.72-6.57,9.28,9.28,0,0,1,13.13,0,9,9,0,0,1,2.72,6.57,9,9,0,0,1-2.72,6.56A9,9,0,0,1,300.8,18.57ZM309.75,93H291.87V24.68h17.88Z"/><path class="cls-1" d="M334.14,24.68h26V42.56H335.76v22.5a5.49,5.49,0,0,0,.87,2.94q4.46,7.06,12.14,7.07h13L368.28,93H342.66a13.56,13.56,0,0,1-6.12-1.47q-20.28-10.32-20.28-28.33V6.79h17.88Z"/><path class="cls-1" d="M22,23.68H43.59l6,17.88H21.89a3.11,3.11,0,0,0-2.31.94,3.28,3.28,0,0,0,0,4.62,3.11,3.11,0,0,0,2.31.94H33.8a22,22,0,0,1,14.81,5.51,21.35,21.35,0,0,1,7.38,17,21.93,21.93,0,0,1-6.34,14.89A21.18,21.18,0,0,1,34.05,92H12.41l-6-17.88H34.11a3.25,3.25,0,1,0,0-6.5H22.2A22,22,0,0,1,7.4,62.06,21.33,21.33,0,0,1,0,45.08,21.87,21.87,0,0,1,6.34,30.19,21.16,21.16,0,0,1,22,23.68Z"/></g></g></svg>